<?xml version="1.0" encoding="utf-8"?>
<!-- Generator: Adobe Illustrator 19.2.1, SVG Export Plug-In . SVG Version: 6.00 Build 0)  -->
<svg version="1.1" id="layer" xmlns="http://www.w3.org/2000/svg" xmlns:xlink="http://www.w3.org/1999/xlink" x="0px" y="0px"
	 viewBox="0 0 652 652" style="enable-background:new 0 0 652 652;" xml:space="preserve" width="50px">

<path class="st0" d="M130.4,389.8H86.6V286.6h18.8v90.6h25V389.8z M171.9,331c0,20.3-19.1,29.4-27.2,30c0.9,11.9,6.3,16.6,11.9,16.6
	c2.2,0,3.8,0,5.3-0.3v12.2c-1.6,0.3-4.1,0.6-6.6,0.6c-12.2,0-28.4-6.9-28.4-41.6c0-35.9,15-41.3,24.7-41.3
	C160.4,307.6,171.9,313.8,171.9,331L171.9,331z M156,330.1c0-7.5-1.9-10.3-4.7-10.3c-4.1,0-7.5,4.7-7.5,24.7c0,1.6,0,2.8,0.3,4.1
	C148.8,347.9,156,341,156,330.1L156,330.1z M251.6,291.9c0,37.5-30.6,50.6-40,52.5v45.3h-21.9V249.1h18.4
	C230.7,249.1,251.6,260.1,251.6,291.9L251.6,291.9z M229.4,291.9c0-21.3-8.4-26.9-17.8-26.9v61.6C217.9,326,229.4,317.3,229.4,291.9
	L229.4,291.9z M296,389.8h-18.8v-6.3l-5.6,6.3c-1.3,0.3-1.9,0.3-2.5,0.3c-12.5,0-23.7-12.8-23.7-30.6c0-29.1,24.4-39.4,32.2-40.6
	v-1.9c0-5.3-3.1-7.8-8.4-7.8c-5,0-8.1,0.6-12.5,1.6l0.3-14.4c0,0,4.7-1.6,13.4-1.6c15,0,25.9,6.6,25.9,27.2v67.8H296z M277.3,370.1
	v-36.3c-3.1,0.3-12.8,8.4-12.8,25.9c0,11.3,3.8,15.6,7.2,15.6C274.4,375.4,277.3,372.3,277.3,370.1L277.3,370.1z M339.8,311.6
	L339.8,311.6c-9.7,0-15.6,7.8-15.6,18.8v59.4h-18.8v-92.8L321,296v7.5c3.1-2.5,7.8-7.2,17.2-7.2h1.6V311.6L339.8,311.6z M346,286.6
	v-18.8h18.8v18.8H346z M364.8,389.8V296H346v93.8H364.8L364.8,389.8z M417.6,362.9c0,16.3-14.1,27.2-30.6,27.2
	c-7.2,0-13.1-0.9-18.1-3.1l7.8-14.1c2.8,1.3,5.3,1.6,8.4,1.6c6.3,0,11.3-4.1,11.3-9.7c0-6.6-2.5-11.2-9.7-19.7
	c-12.5-11.9-15.6-17.5-15.6-27.2c0-13.1,11.9-23.4,26.9-23.4c6.9,0,11.6,1.3,15.6,2.8l-7.2,13.1c-1.9-0.9-4.1-1.3-7.5-1.3
	c-4.4,0-8.1,3.1-8.1,7.2c0,3.8,1.6,7.2,9.7,14.7C411.9,341.9,417.6,349.8,417.6,362.9L417.6,362.9z M421,286.6v-18.8h18.8v18.8H421z
	 M439.8,389.8V296H421v93.8H439.8L439.8,389.8z M497.6,321.9c0,23.4-22.2,33.8-31.6,34.7c0.9,13.8,5.9,19.1,12.5,19.1
	c2.5,0,4.7,0,4.7-0.3v14.1c0,0.3-3.4,0.6-6.6,0.6c-14.1,0-32.2-7.8-32.2-47.8c0-41.6,17.5-47.5,28.8-47.5
	C484.1,295.1,497.6,302.3,497.6,321.9L497.6,321.9z M479.1,320.7c0-8.4-1.9-11.9-5.6-11.9c-4.7,0-8.4,5.3-8.4,28.4
	c0,1.9,0,3.1,0.3,4.4C471,341.6,479.1,333.5,479.1,320.7L479.1,320.7z M555.4,389.8h-18.8v-67.2c0-6.6-3.1-12.2-7.8-12.2
	s-7.8,5.6-7.8,12.2v67.2h-18.8V296h15.6v4.7l6.9-5.6c0.9-0.3,1.6-0.3,3.4-0.3c16.9,0,27.5,10.3,27.5,32.5v62.5H555.4z"/>
</svg>
